<?xml version="1.0" standalone="no"?>
<!DOCTYPE svg PUBLIC "-//W3C//DTD SVG 20010904//EN"
 "http://www.w3.org/TR/2001/REC-SVG-20010904/DTD/svg10.dtd">
<svg version="1.0" xmlns="http://www.w3.org/2000/svg"
 width="899.000000pt" height="219.000000pt" viewBox="0 0 899.000000 219.000000"
 preserveAspectRatio="xMidYMid meet">
<metadata>
Created by potrace 1.16, written by Peter Selinger 2001-2019
</metadata>
<g transform="translate(0.000000,219.000000) scale(0.100000,-0.100000)"
fill="#000000" stroke="none">
<path d="M893 2180 c-28 -12 -724 -412 -789 -455 -38 -25 -58 -48 -78 -86
l-26 -53 0 -490 c0 -469 1 -491 20 -531 11 -23 32 -53 47 -67 45 -41 806 -476
857 -489 88 -22 107 -13 532 232 219 126 412 242 427 257 16 15 39 45 50 67
22 39 22 47 22 535 l0 495 -28 47 c-15 26 -42 58 -60 71 -42 31 -758 444 -803
463 -37 15 -136 18 -171 4z m461 -351 c193 -110 354 -204 358 -208 9 -8 -710
-416 -732 -415 -12 0 -656 365 -722 409 -14 9 7 25 139 101 86 49 161 88 167
86 6 -2 90 -49 187 -105 l176 -101 -56 -40 c-70 -49 -65 -45 -60 -51 6 -6 489
-48 494 -43 2 2 -17 79 -43 171 l-47 167 -64 -44 c-35 -25 -67 -44 -70 -42 -3
2 -49 28 -101 58 -52 30 -128 74 -169 98 l-73 42 103 59 c60 34 116 59 133 59
20 0 143 -65 380 -201z m454 -783 c-3 -493 11 -437 -138 -521 l-95 -55 -3 80
c-2 44 -6 80 -10 80 -4 -1 -47 -25 -97 -53 l-90 -53 -5 -88 -5 -87 -155 -89
c-85 -49 -156 -88 -157 -87 -1 1 1 200 4 443 l6 440 366 207 c201 113 370 207
374 207 4 0 6 -191 5 -424z m-1378 117 c19 -59 30 -62 30 -10 0 34 4 47 14 47
26 0 56 -50 56 -92 l0 -40 19 23 19 23 21 -34 c12 -19 29 -60 38 -90 9 -30 23
-65 31 -78 32 -49 -7 -38 -144 42 -77 45 -152 89 -167 99 -29 19 -37 57 -12
57 8 0 15 8 15 19 0 23 37 71 55 71 7 0 19 -17 25 -37z m72 -256 c114 -66 135
-81 131 -98 -7 -25 -50 -59 -75 -59 -31 0 -93 37 -128 76 -46 53 -101 175 -72
162 4 -1 69 -38 144 -81z m-19 -183 c150 -87 186 -118 226 -194 33 -61 47
-142 26 -147 -16 -4 -486 270 -497 290 -12 24 -2 69 24 103 33 41 80 30 221
-52z"/>
<path d="M1429 1161 c-86 -54 -160 -186 -161 -286 -1 -64 27 -121 95 -192 72
-77 86 -73 139 39 74 155 111 263 116 333 4 66 2 73 -23 103 -23 28 -33 32
-74 32 -35 0 -59 -8 -92 -29z"/>
<path d="M6233 1891 c-68 -23 -117 -61 -150 -118 -49 -84 -53 -129 -53 -640
l0 -473 105 0 105 0 0 340 0 340 150 0 150 0 0 80 0 80 -151 0 -151 0 4 74 c4
82 23 120 72 144 32 16 104 20 167 9 l46 -8 12 63 c7 35 15 72 17 83 4 17 -2
23 -41 33 -68 18 -220 15 -282 -7z"/>
<path d="M8018 1851 c-31 -27 -33 -34 -33 -91 0 -57 2 -64 33 -91 65 -58 180
-30 202 51 25 92 -27 160 -122 160 -39 0 -54 -6 -80 -29z"/>
<path d="M6708 1850 c-59 -46 -63 -144 -8 -192 25 -24 39 -28 86 -28 48 0 60
4 84 29 52 51 52 131 0 183 -24 24 -36 28 -83 28 -39 0 -61 -6 -79 -20z"/>
<path d="M2370 1220 l0 -560 105 0 105 0 0 560 0 560 -105 0 -105 0 0 -560z"/>
<path d="M8470 1746 l-65 -11 -3 -414 c-2 -348 0 -424 13 -475 21 -81 55 -127
118 -162 83 -45 259 -46 370 -2 22 8 27 16 24 32 -3 12 -11 47 -17 79 -11 57
-13 59 -38 53 -162 -37 -213 -28 -249 44 -22 42 -23 56 -23 252 l0 208 150 0
150 0 0 80 0 80 -150 0 -150 0 0 125 0 125 -32 -1 c-18 -1 -62 -7 -98 -13z"/>
<path d="M4455 1736 l-70 -11 -3 -375 c-2 -215 2 -408 7 -452 18 -136 74 -213
177 -244 71 -21 209 -18 289 7 60 18 66 23 61 42 -3 12 -11 48 -17 80 -11 56
-13 59 -38 53 -143 -33 -205 -26 -245 27 -20 27 -21 43 -24 253 l-3 224 150 0
151 0 0 80 0 80 -150 0 -150 0 0 125 0 125 -32 -1 c-18 -1 -64 -7 -103 -13z"/>
<path d="M2919 1505 c-42 -8 -88 -19 -102 -24 l-27 -11 0 -405 0 -405 105 0
105 0 0 339 0 338 68 6 c123 11 186 -17 214 -99 14 -41 17 -91 18 -316 l0
-268 101 0 100 0 -3 313 c-4 351 -8 370 -78 450 -65 73 -119 91 -285 94 -89 1
-168 -3 -216 -12z"/>
<path d="M3835 1506 c-63 -20 -99 -42 -133 -80 -40 -46 -56 -104 -49 -184 9
-114 64 -168 242 -237 108 -41 155 -79 155 -122 0 -34 -8 -46 -40 -63 -35 -19
-172 -17 -245 4 -111 32 -101 36 -114 -36 -7 -34 -15 -73 -17 -84 -14 -55 309
-88 445 -45 122 38 175 106 175 226 1 137 -50 193 -242 271 -126 52 -150 67
-158 101 -23 89 112 127 269 76 27 -8 51 -13 54 -10 10 11 40 157 33 162 -51
31 -298 45 -375 21z"/>
<path d="M5120 1503 c-36 -8 -66 -17 -68 -18 -2 -2 2 -40 9 -85 11 -76 13 -81
33 -75 66 19 187 35 229 29 80 -10 137 -76 137 -156 l0 -33 -142 0 c-133 0
-147 -2 -198 -26 -106 -50 -149 -118 -150 -235 0 -131 75 -226 200 -253 75
-16 281 -12 390 7 l95 17 0 305 c0 343 -6 377 -71 450 -59 65 -118 84 -269 87
-91 1 -149 -2 -195 -14z m290 -484 l50 -11 0 -103 0 -102 -68 -7 c-81 -8 -158
7 -189 36 -45 42 -38 131 12 164 21 13 86 30 127 33 9 1 40 -4 68 -10z"/>
<path d="M8000 1090 l0 -420 105 0 105 0 0 420 0 420 -105 0 -105 0 0 -420z"/>
<path d="M6680 1080 l0 -420 105 0 105 0 0 420 0 420 -105 0 -105 0 0 -420z"/>
<path d="M7080 1383 c45 -65 108 -157 141 -205 l61 -87 -75 -98 c-83 -110
-217 -310 -217 -324 0 -5 46 -9 103 -9 l102 0 68 103 c37 56 81 118 97 137
l30 35 30 -35 c16 -19 60 -81 97 -137 l68 -103 108 0 c59 0 107 4 107 8 0 17
-109 183 -197 301 -52 68 -92 130 -89 137 3 8 64 97 136 199 71 102 130 188
130 190 0 3 -48 5 -107 5 l-108 -1 -84 -124 -84 -124 -86 124 -85 125 -113 0
-114 0 81 -117z"/>
</g>
</svg>
